<svg width="213" height="325" viewBox="0 0 213 325" fill="none" xmlns="http://www.w3.org/2000/svg">
<path d="M43.7138 50.0029C42.9777 46.4041 40.8899 42.5095 40.5 39C40.5 33.8539 36.018 32.8657 36.018 27.567C36.018 22.2704 35.3987 16.3586 36.7917 11.4832C37.3753 9.44049 44.9621 -0.648023 47.012 1.91437C48.3429 3.578 54.725 6.10872 56.703 6.8413C59.7402 7.96617 61.9678 10.4752 64.9689 11.809C70.1428 14.1085 74.1513 19.1487 79.2611 21.7035C84.2672 24.2066 88.549 29.3506 91.8838 33.7969C99.7328 44.2622 105.63 56.0033 108.415 68.8148C113.937 94.2135 118.184 120.268 125.029 145.366C130.377 164.975 138.022 187.848 154.02 201.476C165.981 211.664 179.721 219.182 192.133 228.757C200.496 235.209 204.533 243.449 208.257 253.025C211.908 262.412 213.005 273.807 211.352 283.727C209.487 294.916 206.649 299.968 195.472 304.249C187.468 307.314 179.446 309.147 171.285 311.578C163.865 313.789 156.783 316.861 149.297 318.908C124.832 325.597 96.9847 326.226 72.3796 320.007C54.3732 315.456 38.1781 310.022 26.4899 294.721C16.7338 281.949 9.56292 267.668 5.23487 252.211C1.50942 238.906 0.940214 225.283 1.61093 211.533C2.13406 200.809 4.9619 188.148 11.4241 179.325C18.1859 170.092 26.5075 167.964 37.036 164.625C43.7429 162.499 49.2108 158.835 49.2108 151.636C49.2108 137.022 46.2791 122.965 46.2791 108.393C46.2791 96.8007 45.5462 85.2622 45.5462 73.701C45.5462 65.8024 45.3021 57.7677 43.7138 50.0029Z" stroke="black" stroke-width="1.22419" stroke-linecap="round"/>
</svg>
