<svg width="505" height="307" viewBox="0 0 505 307" fill="none" xmlns="http://www.w3.org/2000/svg">
<path d="M350.654 53.8738C351.11 61.7298 365.242 67.7053 355.164 74.0966C354.631 74.4347 351.087 75.9021 351.107 76.238C351.132 76.6718 356.009 75.2198 356.696 74.9603C361.497 73.1479 367.786 72.8864 372.914 72.5883C390.253 71.5804 409.569 72.2627 425.877 78.561C428.567 79.6001 433.629 80.4924 436.513 80.3247C440.155 80.113 443.672 81.8141 447.332 81.6013C450.518 81.4161 453.883 82.2719 456.725 82.908C459.428 83.5131 463.808 82.5581 466.005 84.1153C466.96 84.7921 473.998 85.6113 475.412 85.6857C479.455 85.8985 482.369 90.0932 485.717 91.7562C490.518 94.1413 496.687 104.911 497.741 110.113C499.117 116.901 503.309 123.045 503.701 129.775C504.134 137.236 503.649 142.519 501.034 149.462C497.506 158.83 486.894 163.639 480.325 170.198C474.433 176.083 467.032 180.757 461.267 186.551C451.185 196.685 435.453 199.485 421.573 200.292C414.646 200.694 408.656 199.137 401.996 199.524C395.557 199.898 388.504 199.477 383.623 194.875C380.255 191.701 380.636 192.662 380.897 197.151C381.213 202.603 381.53 208.054 381.847 213.505C382.317 221.583 376.16 225.839 372.438 231.943C370.923 234.428 367.604 240.407 364.377 240.775C362.147 241.03 357.372 241.498 355.438 242.724C349.334 246.595 343.9 246.73 336.64 247.152C334.31 247.287 331.484 249.357 329.154 249.492C326.052 249.673 321.913 249.182 319.226 250.811C314.794 253.497 308.396 256.596 303.236 257.51C297.616 258.504 293.405 263.036 288.906 265.965C285.679 268.067 283.569 271.181 280.337 273.344C278.196 274.777 270.334 273.591 270.708 280.028C258.974 282.139 252.661 302.955 238.844 291.901C234.572 288.484 228.374 294.181 228.029 288.242C227.745 283.366 213.447 283.259 213.84 290.02C214.24 296.896 199.203 295.742 196.303 301.043C192.432 308.12 181.937 301.335 175.461 304.372C169.409 307.211 162.179 306.164 156.37 303.365C152.622 301.559 144.486 305.209 140.397 304.293C134.29 302.926 131.304 306.328 125.212 305.176C120.83 304.347 116.472 300.61 112.007 299.274C107.185 297.832 102.775 295.082 98.0218 293.629C89.2379 290.944 80.1864 286.972 71.1362 285.506C58.415 283.445 44.6618 276.352 35.513 267.303C31.3836 263.219 26.0963 258.175 23.0668 253.523C22.1787 252.159 19.7907 251.252 18.6226 249.917C17.4005 248.522 17.0184 246.37 15.6935 245.059C13.8941 243.279 12.6674 238.531 12.5191 235.98C12.0936 228.66 7.34836 222.073 6.52919 214.891C5.72832 207.869 1.94963 201.672 1.51648 194.221C0.974593 184.899 4.11739 168.344 16.1689 167.644C21.485 167.335 27.4263 157.277 24.3343 152.401C22.0664 148.825 15.5229 142.926 11.3581 142.251C6.85349 141.521 0.337806 131.282 7.31388 130.047C11.5092 129.305 20.6605 127.389 23.907 124.107C32.9286 114.986 32.9717 99.1833 37.2535 87.8131C43.0609 72.3919 59.6247 62.7588 74.5579 57.5373C82.2022 54.8645 90.5507 50.156 97.7331 46.4505C104.322 43.0511 111.78 40.7747 118.152 37.1119C123.818 33.8545 129.674 31.1675 135.265 28.2831C140.976 25.3367 146.072 21.2989 151.913 19.6401C158.823 17.6773 165.514 12.1021 172.84 10.8542C179.825 9.66431 186.442 2.82405 193.289 2.04315C199.518 1.33268 211.312 -1.14921 215.381 5.09941C216.363 6.6078 216.353 13.9563 217.801 13.9573C222.155 13.9603 226.245 14.4192 230.676 14.1616C237.585 13.76 240.626 23.68 246.589 20.6038C252.905 17.3451 258.035 14.2023 265.458 17.3896C273.762 20.9552 280.759 28.5139 289.973 30.2563C300.049 32.162 300.587 35.4321 309.366 40.3802C313.946 41.6165 324.424 37.0007 324.993 46.7904C331.677 45.0934 335.123 45.4823 338.369 48.2102C341.616 50.9381 344.676 49.4529 346.717 51.7207C348.264 53.4397 351.956 54.4327 352.663 55.6626" stroke="black" stroke-linecap="round"/>
</svg>
