<svg width="307" height="515" viewBox="0 0 307 515" fill="none" xmlns="http://www.w3.org/2000/svg">
<path d="M206.23 125.655C205.15 127.949 204.5 129.918 204.5 132.5C214.071 127.714 229.222 127.579 235.736 137.35C242.66 147.736 246.583 159.48 252.357 170.386C257.027 179.207 255.842 190.536 260.852 198.989C269.785 214.064 282.886 227.113 289.66 244.049C292.688 251.619 296.308 259.948 296.308 268.22C296.308 274.985 299.306 281.972 297.211 288.78C295.681 293.753 295.377 300.934 298.894 305.154C306.159 313.872 304.061 329.874 305.337 340.078C307.147 354.56 305.929 371.288 301.848 385.342C300.172 391.116 299.235 397.275 297.047 402.866C293.507 411.913 288.016 419.706 284.489 428.72C279.25 442.109 275.221 455.855 269.716 469.224C265.999 478.251 261.903 490.049 254.039 496.514C250.281 499.604 245.748 501.308 241.318 503.162C236.624 505.127 232.457 507.999 227.775 509.975C219.604 513.422 210.861 513.504 202.126 513.504C194.307 513.504 186.1 513.614 178.489 511.657C169.215 509.272 159.498 508.578 150.378 505.748C142.582 503.328 135.078 500.743 127.519 497.663C117.809 493.707 108.539 489.493 99.9831 483.382C93.8483 479 87.6432 474.369 81.1877 470.496C68.474 462.868 56.424 454.626 46.3055 443.698C32.1107 428.368 23.0886 411.149 17.661 391.047C14.2063 378.251 12.6652 365.165 10.069 352.184C8.18489 342.763 5.62573 333.752 3.42088 324.442C-0.104631 309.557 1.28875 293.53 3.95438 278.603C7.23993 260.204 20.143 245.429 24.8427 227.675C25.9695 223.418 27.5484 219.404 28.495 215.076C29.2306 211.714 28.9738 208.151 29.4799 204.735C30.626 196.999 30.7752 189.38 33.3375 181.836C35.6338 175.074 41.2785 168.327 47.7418 165.215C53.3059 162.536 59.5548 160.757 64.7725 157.418C72.4823 152.484 80.8945 146.48 86.3585 138.992C90.0049 133.995 90.7385 127.718 92.4321 122.002C95.4453 111.833 95.3868 99.9781 95.3868 89.4592C95.3868 83.0484 98.1007 76.2962 97.0283 70.1304C95.8447 63.3243 94.6481 55.9483 94.6481 49.0369C94.6481 43.6028 94.0673 37.9407 95.3868 32.6628C96.3179 28.9385 99.3701 25.2539 101.707 22.2802C104.729 18.4339 110.354 15.2968 114.428 12.6773C119.594 9.35659 125.1 6.60319 130.844 4.38766C146.87 -1.79387 167.238 0.191499 178.119 15.3037C184.499 24.1646 187.85 34.4648 193.467 43.702C199.744 54.0232 205.344 64.6088 210.621 75.4653C215.581 85.6693 216.683 96.763 213.576 107.639C211.825 113.768 209.094 119.57 206.387 125.321L206.23 125.655Z" stroke="black" stroke-width="1.22419" stroke-linecap="round"/>
</svg>
