<svg width="455" height="168" viewBox="0 0 455 168" fill="none" xmlns="http://www.w3.org/2000/svg">
<path d="M110.543 68.066C113.226 69.6352 114.256 71.6756 117.5 72C128.244 72 138.335 74.6116 148.914 74.6116C174.711 74.6116 200.252 73.0768 226.04 73.0768H279.034C287.507 73.0768 296.323 72.919 304.7 74.2279C312.992 75.5235 321.67 74.8991 329.855 76.9139C336.076 78.4452 351.78 84.258 356.501 76.9139C360.512 70.6747 364.091 65.0594 365.924 57.7283C368.349 48.0276 369.707 38.2527 372.063 28.5663C374.036 20.455 379.51 6.94109 388.435 3.9662C393.304 2.343 396.578 0.939146 401.822 0.939146C407.896 0.939146 414.436 0.838035 420.41 1.87711C427.779 3.15855 438.228 2.55543 443.987 8.31492C448.354 12.6817 449.918 20.8322 450.51 26.6051C451.422 35.4971 452.539 44.3713 453.41 53.2943C454.437 63.8232 453.793 75.0435 452.642 85.526C451.468 96.2207 447.712 105.929 445.522 116.393C442.338 131.605 441.339 149.535 425.953 157.664C412.214 164.922 397.227 169.442 381.443 165.935C377.313 165.017 373.887 162.608 371.85 158.985C368.514 153.056 363.446 148.36 360.338 142.145C357.972 137.411 355.285 134.405 351.556 130.676C348.496 127.616 345.9 122.387 342.304 120.06C338.742 117.755 331.619 120.624 328.107 122.575C325.561 123.99 322.594 124.049 320.049 126.029C316.087 129.11 312.452 132.364 308.538 135.408C302.061 140.446 295.224 148.878 286.282 149.819C281.461 150.326 277.142 152.121 272.085 152.121C265.057 152.121 258.083 151.195 251.151 149.989C245.608 149.025 238.785 147.711 233.16 147.517C229.353 147.385 225.652 145.982 221.862 145.982C216.984 145.982 211.663 144.954 206.854 144.063C200.161 142.824 193.109 142.492 186.518 140.994C177.289 138.896 167.755 139.006 158.507 137.156C149.943 135.444 140.608 135.341 131.857 135.244L131.263 135.238C119.613 135.108 107.534 133.625 95.9618 132.339C86.4063 131.277 77.0294 130.597 67.5672 128.757C50.7552 125.488 33.508 121.552 17.8554 114.347C14.396 112.755 2.06733 105.957 1.56896 101.471C1.2087 98.2289 2.8112 95.7053 4.34021 92.9871C5.78952 90.4105 8.05881 88.7817 9.24318 85.9524C10.3413 83.329 11.5026 80.4742 13.0803 78.1076C15.8595 73.9387 18.2453 70.5647 22.4599 67.7048C31.9728 61.2496 41.4581 56.8451 53.0288 56.2361C64.2138 55.6474 76.6712 53.6523 87.5628 57.0035C95.6844 59.5025 103.231 63.7891 110.543 68.066Z" stroke="black" stroke-width="1.22419" stroke-linecap="round"/>
</svg>
