<svg width="498" height="302" viewBox="0 0 498 302" fill="none" xmlns="http://www.w3.org/2000/svg">
<path d="M100.892 51.258C104.991 51.9288 109.256 54.4072 113.016 54.8772C118.332 54.8772 126.337 58.1344 131.745 58.1344C137.11 58.1344 145.675 58.8967 150.475 61.0298C156.955 63.9098 169.511 61.3917 176.533 61.3917C189.803 61.3917 202.637 63.0203 215.982 63.0203C247.306 63.0203 276.129 66.746 306.823 72.4302C325.972 75.9762 344.231 82.9407 362.921 88.1737C374.906 91.5295 388.699 97.2217 401.284 97.2217C412.831 97.2217 430.292 100.112 437.114 88.1737C440.276 82.6396 441.767 73.8383 442 67.5443C442.42 56.2154 445.542 44.9816 446.795 33.7049C448.187 21.1797 453.344 11.6885 459.553 1.13225C461.412 -2.02742 469.604 25.5199 470.501 28.9095C476.188 50.3946 482.854 72.393 486.335 94.3263C490.056 117.767 497.374 139.547 497.374 163.634C497.374 183.041 495.745 202.29 495.745 221.722C495.745 235.414 497.045 250.645 490.859 263.342C482.795 279.895 460.598 300.801 441.276 300.801C426.829 300.801 422.281 294.38 415.58 282.524C410.816 274.095 410.196 264.844 406.984 255.923C403.1 245.133 397.599 235.266 390.698 226.065C381.685 214.047 376.448 209.597 362.197 209.597C324.93 209.597 287.002 195.417 251.359 185.982C232.779 181.064 213.549 174.144 195.714 167.253C181.629 161.811 164.636 158.722 149.687 156.005L148.846 155.852C131.734 152.741 115.372 146.108 98.7202 141.195C79.5767 135.546 56.1274 131.762 38.9131 121.561C29.4685 115.964 10.1732 106.373 5.88803 95.2311C2.89753 87.4558 -1.06538 73.3358 3.17364 65.4633C13.8859 45.569 35.1712 48.3626 55.109 48.3626C70.4302 48.3626 85.7382 48.7783 100.892 51.258Z" stroke="black" stroke-width="1.22419" stroke-linecap="round"/>
</svg>
