<svg width="402" height="241" viewBox="0 0 402 241" fill="none" xmlns="http://www.w3.org/2000/svg">
<path d="M147 2C107.492 -0.224573 89.3773 4.39059 49.8255 4.39059C48.7185 4.75961 46.9692 7.65121 45.9541 7.77811C45.2757 7.86291 42.4979 8.95278 42.0826 9.47187C41.3764 10.3547 39.4565 10.3662 38.4531 10.9237L33.8558 13.4777C31.1807 14.9639 28.8329 17.2926 26.7043 19.5C23.7004 22.6152 20.5 31 15.5 40C10.7066 48.6282 5.24394 62.3846 3.26056 72.0811C0.153883 87.2693 1.46945 102.68 3.42187 117.974C6.80709 144.492 11.5554 170.862 26.7044 193.44C35.0035 205.809 44.6653 219.18 56.3855 228.579C64.7382 235.278 75.801 237.412 86.1204 239.037C99.753 241.185 113.986 240.182 127.631 238.661C142.209 237.036 155.653 233.891 169.572 229.251C188.514 222.937 178.279 200.385 197 193.44C219.014 185.274 260.431 173.265 282 164C304.59 154.296 295.342 133.159 315 117.974C326.014 109.467 401.511 113.175 400.98 98.5233C400.482 84.7765 392.772 72.9895 384.902 62.2284C377.105 51.5669 366.492 17.3941 355.5 10C333.323 -4.91779 307.84 43.7137 282 40C250.396 35.4578 178.872 3.79458 147 2Z" stroke="black" stroke-width="1.22419" stroke-linecap="round"/>
</svg>
