<svg width="586" height="381" viewBox="0 0 586 381" fill="none" xmlns="http://www.w3.org/2000/svg">
<path d="M140.069 83.115C167.968 84.7562 195.342 92.9687 223.247 92.9687C226.234 92.9687 225.92 93.9034 228.697 95.4458C233.112 97.8988 239.294 98.6474 244.055 100.896C249.825 103.62 258.664 106.581 264.918 107.832C269.927 108.833 274.389 111.668 279.231 113.281C285.369 115.328 291.711 116.736 297.562 119.502C303.31 122.219 310.452 122.917 316.609 124.676C323.441 126.629 330.336 128.488 337.252 130.126C355.225 134.383 373.669 137.943 391.914 140.75C408.647 143.325 425.193 148.499 442.173 149.393C446.891 149.641 459.742 151.27 462.046 144.934C467.452 130.065 470.598 115.292 474.431 99.9598C476.457 91.859 475.953 79.4272 474.707 71.1696C473.065 60.2907 473.936 48.9749 473.936 37.9756C473.936 31.4237 475.96 23.5243 478.89 17.6629C481.766 11.9118 486.842 0.818146 494.249 0.818146C504.218 0.818146 514.182 6.48471 523.7 8.74507C533.616 11.1002 546.022 12.3095 555.187 16.8922C564.226 21.4118 566.141 39.7696 568.509 48.3797C570.965 57.3135 572.53 67.0821 574.454 76.179C576.853 87.5223 579.077 98.8088 580.95 110.254C585.382 137.341 584.806 163.661 583.977 191.009C583.289 213.706 583.281 237.832 578.968 260.205C575.658 277.373 573.362 292.778 563.059 307.546C554.161 320.3 548.268 335.769 541.095 349.603C532.342 366.483 520.873 380.32 500.744 380.32C488.379 380.32 474.987 374.483 464.578 368.209C454.384 362.065 444.619 356.585 439.806 345.584C436.506 338.041 436.273 329.307 433.311 321.638C431.227 316.246 430.129 310.541 428.356 305.014C426.68 299.787 424.643 294.864 422.906 289.655C418.155 275.401 413.245 255.471 395.162 255.471C387.012 255.471 379.142 258.443 370.886 258.443C361.454 258.443 352.533 260.425 343.142 260.425C332.183 260.425 321.159 260.029 310.443 259.434C293.91 258.516 277.781 257.452 261.395 257.452C240.693 257.452 220.328 254.543 200.049 251.645L199.466 251.562C188.154 249.946 177.116 247.127 165.777 245.507C160.322 244.728 154.769 242.589 149.152 242.589C142.538 242.589 135.542 241.444 129.115 239.837C113.997 236.058 98.5555 233.98 83.7552 228.717C76.2483 226.048 68.8483 223.906 61.7359 220.35C55.9996 217.482 49.9635 214.033 44.1205 211.652C40.2442 210.073 34.6131 204.457 31.6246 201.468C27.9575 197.801 25.5889 192.775 22.1013 189.083C17.9753 184.714 15.6214 179.379 12.6881 174.165C9.54658 168.58 5.59807 162.132 4.21067 155.889C2.81574 149.611 1.29312 145.49 1.29312 138.769C1.29312 133.691 5.01723 128.653 7.7888 124.621C13.4118 116.442 23.7825 109.248 32.01 103.868C41.1941 97.8632 50.8213 93.6075 61.2405 90.4364C72.6363 86.9682 85.3669 82.2921 97.4071 82.0691C111.682 81.8048 125.863 82.2794 140.069 83.115Z" stroke="black" stroke-width="1.22419" stroke-linecap="round"/>
</svg>
