<svg width="213" height="534" viewBox="0 0 213 534" fill="none" xmlns="http://www.w3.org/2000/svg">
<path d="M23.1857 40.3019C22.4496 36.703 20.3618 32.8085 19.9719 29.299C19.9719 24.1529 15.4899 23.1646 15.4899 17.866C15.4899 12.5694 13.6106 7.80189 16.454 12C23.3761 22.2204 28.1724 1.51069 30.2223 4.07309C31.5532 5.73672 37.9353 8.26744 39.9133 9.00002C42.9504 10.1249 43.9529 4.66622 46.954 6.00002C52.1279 8.29954 48.2023 11.8877 67.454 9C87.454 6.00007 99.1192 -2.33844 102.454 2.10794C110.303 12.5732 110.169 40.0723 112.954 52.8839C118.475 78.2826 149.515 317.562 156.36 342.66C161.708 362.27 175.502 374.697 191.5 388.325C203.461 398.514 195.352 398.825 202.852 423.825C206.752 436.825 207.385 440.275 211.109 449.851C214.759 459.237 204.505 474.633 202.852 484.552C200.987 495.741 198.149 500.794 186.972 505.075C178.968 508.14 170.946 509.973 162.785 512.404C155.365 514.614 145.783 525.861 138.297 527.908C113.832 534.598 85.9847 535.226 61.3797 529.008C43.3733 524.456 46.9672 513.801 35.279 498.5C25.5229 485.728 18.352 471.447 14.024 455.99C10.2985 442.685 -10.2108 432.536 10.4 415.312C10.9232 404.588 13.751 391.927 20.2132 383.103C26.9751 373.871 35.2966 371.742 45.8251 368.404C52.532 366.277 57.9999 362.613 57.9999 355.415C57.9999 340.8 46.954 326.072 46.954 311.5C46.954 299.908 25.0181 75.5612 25.0181 64C25.0181 56.1014 24.774 48.0667 23.1857 40.3019Z" stroke="black" stroke-width="1.22419" stroke-linecap="round"/>
</svg>
